<svg xmlns="http://www.w3.org/2000/svg" version="1.1" xmlns:xlink="http://www.w3.org/1999/xlink" width="512" height="512" x="0" y="0" viewBox="0 0 100 100" style="enable-background:new 0 0 512 512" xml:space="preserve" class=""><g><path d="M82.1 10.9H17.4c-3.5 0-6.5 1-9 2.5-5.4 3.5-8.4 9-8.4 15v43.3c0 9.5 8 17.4 17.4 17.4h65.2c9.5 0 17.4-8 17.4-17.4V28.4c-.5-9.5-8-17.5-17.9-17.5zm-64.7 10h65.7L55.7 44.3c-3.5 3-8 3-11.4 0L16.4 20.9zm72.2 51.2c0 4-3.5 7.5-7.5 7.5H17.4c-4 0-7.5-3.5-7.5-7.5V28.4l27.9 23.4c3.5 3 8 4.5 11.9 4.5s8.5-1.5 11.9-4.5l27.9-23.4v43.7z" fill="#000000" opacity="1" data-original="#000000" class=""></path></g></svg>